<?xml version="1.0" standalone="no"?>
<!DOCTYPE svg PUBLIC "-//W3C//DTD SVG 20010904//EN"
 "http://www.w3.org/TR/2001/REC-SVG-20010904/DTD/svg10.dtd">
<svg version="1.0" xmlns="http://www.w3.org/2000/svg"
 width="864.000000pt" height="864.000000pt" viewBox="0 0 864.000000 864.000000"
 preserveAspectRatio="xMidYMid meet">
<metadata>
Created by potrace 1.11, written by Peter Selinger 2001-2013
</metadata>
<g transform="translate(0.000000,864.000000) scale(0.100000,-0.100000)"
fill="#000000" stroke="none">
<path d="M6477 8634 c-2 -2 -27 -6 -57 -9 -50 -5 -255 -49 -255 -55 0 -1 -8
-3 -17 -5 -92 -17 -420 -181 -436 -217 -2 -5 -8 -8 -14 -8 -16 0 -180 -142
-242 -209 -17 -19 -36 -39 -42 -45 -25 -27 -134 -175 -158 -216 -76 -130 -169
-351 -191 -455 -18 -91 -27 -138 -32 -185 -9 -72 -9 -353 -1 -405 15 -87 19
-111 25 -135 3 -14 7 -32 9 -40 6 -30 27 -97 57 -180 33 -89 36 -136 16 -200
-13 -37 -55 -135 -70 -160 -4 -8 -19 -35 -32 -60 -55 -105 -110 -206 -115
-215 -4 -5 -7 -12 -7 -15 -1 -3 -11 -27 -23 -54 -12 -27 -26 -73 -31 -103 -7
-47 -5 -58 13 -86 30 -44 90 -62 196 -60 47 1 101 4 120 7 19 2 62 8 95 11 87
11 100 12 132 19 15 3 51 8 78 11 28 3 61 7 75 10 82 17 262 24 330 13 14 -2
50 -15 80 -30 56 -26 223 -84 270 -93 14 -3 36 -7 50 -10 14 -3 36 -7 50 -10
39 -8 119 -17 190 -21 36 -2 67 -4 70 -5 3 -1 9 -1 14 0 5 1 52 4 105 7 53 3
108 6 124 7 15 1 27 5 27 8 0 3 10 5 21 4 12 -1 44 5 73 13 28 7 60 15 71 17
41 7 179 56 251 90 41 19 79 35 84 35 6 0 10 4 10 8 0 5 23 19 50 32 28 13 50
27 50 32 0 4 6 8 13 8 6 0 23 9 37 20 14 11 50 39 80 62 30 23 67 55 83 70 15
15 29 28 32 28 16 0 168 181 234 278 97 143 205 393 227 522 2 8 6 31 10 50
16 78 26 154 27 208 1 17 5 32 10 32 4 0 5 5 2 11 -10 15 -12 80 -3 86 5 2 5
9 1 15 -3 7 -8 39 -9 72 -6 118 -16 179 -49 316 -2 8 -4 16 -5 18 -2 1 -4 7
-5 12 -1 6 -4 12 -5 15 -1 3 -3 8 -4 13 -6 27 -42 123 -58 155 -10 20 -16 37
-12 37 4 0 1 6 -5 13 -6 8 -26 44 -46 80 -144 278 -416 539 -707 683 -49 23
-88 41 -88 38 0 -2 -10 2 -22 10 -21 13 -130 49 -153 51 -5 0 -14 3 -20 7 -9
5 -37 12 -95 25 -8 2 -31 5 -50 8 -19 3 -48 7 -65 10 -36 7 -362 15 -368 9z"/>
<path d="M2297 4694 c-1 -1 -47 -4 -102 -8 -293 -17 -640 -117 -885 -254 -36
-19 -74 -41 -85 -46 -42 -23 -192 -127 -245 -171 -30 -25 -70 -55 -87 -67 -18
-13 -33 -29 -33 -35 0 -7 -4 -13 -8 -13 -19 0 -184 -176 -268 -285 -43 -57
-131 -190 -151 -229 -9 -17 -19 -33 -22 -36 -7 -6 -101 -197 -101 -206 0 -3
-7 -20 -15 -37 -25 -56 -55 -137 -50 -137 3 0 0 -10 -6 -22 -14 -26 -68 -238
-74 -288 -2 -19 -7 -49 -10 -67 -3 -18 -7 -47 -8 -65 -1 -18 -5 -37 -8 -43 -8
-13 -4 -416 5 -480 10 -74 14 -98 20 -121 2 -12 7 -39 10 -60 8 -47 53 -221
65 -249 4 -11 14 -38 21 -60 13 -41 31 -83 81 -193 16 -35 29 -67 29 -72 0 -6
5 -10 10 -10 6 0 10 -9 10 -20 0 -11 4 -20 9 -20 5 0 15 -15 22 -32 18 -43
131 -215 171 -259 10 -10 18 -22 18 -25 0 -3 6 -11 12 -19 7 -7 38 -41 68 -75
50 -57 81 -89 190 -190 44 -42 54 -50 158 -129 44 -34 85 -61 91 -61 6 0 11
-4 11 -9 0 -5 8 -11 18 -15 9 -3 45 -23 79 -45 35 -22 63 -37 63 -35 0 3 12
-3 28 -13 26 -17 106 -57 147 -73 11 -4 36 -15 55 -23 36 -16 175 -65 188 -67
4 0 30 -8 59 -16 29 -8 65 -17 80 -20 15 -3 35 -7 43 -9 8 -3 33 -7 55 -11 22
-3 56 -9 75 -13 19 -4 47 -7 63 -7 15 1 27 -1 27 -4 0 -10 314 -14 412 -6 98
9 227 27 288 42 14 3 34 7 45 9 11 2 20 4 20 5 0 1 7 3 15 5 100 20 328 104
426 156 31 16 62 29 70 29 8 0 14 4 14 9 0 5 12 14 28 20 15 6 41 20 57 31 17
11 37 23 45 27 20 9 69 43 94 66 11 9 23 17 27 17 4 0 14 6 21 13 7 7 22 19
34 27 23 16 119 97 141 118 15 15 33 8 33 -14 0 -8 3 -14 8 -14 4 0 12 -10 18
-23 6 -12 43 -77 82 -144 40 -67 72 -126 72 -132 0 -6 4 -11 9 -11 5 0 13 -10
17 -22 4 -13 10 -25 13 -28 6 -4 63 -102 121 -206 38 -67 45 -79 58 -92 6 -7
12 -18 12 -23 0 -7 37 -71 58 -99 6 -8 41 44 36 52 -3 4 -1 8 5 8 6 0 13 11
17 25 3 14 9 25 13 25 4 0 13 12 20 27 7 16 34 64 61 108 26 44 57 97 69 118
26 46 44 76 114 197 31 52 66 113 78 135 12 22 33 57 46 78 l24 38 47 -37 c26
-21 49 -41 52 -45 3 -3 30 -23 60 -44 30 -21 76 -54 101 -72 26 -18 49 -33 52
-33 3 0 22 -11 41 -24 45 -30 281 -146 298 -146 7 0 25 -6 40 -14 14 -8 43
-19 65 -26 21 -6 47 -15 58 -20 60 -26 261 -67 420 -87 121 -15 443 -9 565 11
141 23 211 39 320 73 47 15 87 27 90 28 9 3 45 18 130 53 247 103 491 268 704
478 43 42 140 155 192 226 31 40 61 80 67 88 12 15 52 80 94 155 22 39 73 143
106 215 47 103 120 338 133 430 3 19 7 41 10 48 2 8 7 37 10 65 3 29 9 79 14
112 9 64 5 416 -5 475 -3 19 -7 49 -9 65 -4 33 -7 46 -31 155 -23 104 -23 105
-25 108 -2 1 -4 7 -5 12 -1 6 -4 12 -5 15 -4 7 -5 15 -14 58 -5 20 -12 40 -17
43 -5 3 -9 13 -9 22 -1 9 -9 35 -20 57 -11 22 -19 44 -20 48 -1 33 -190 378
-211 385 -5 2 -9 8 -9 13 0 11 -74 111 -140 188 -83 97 -205 216 -290 281 -24
19 -50 40 -57 47 -17 15 -144 102 -186 127 -131 77 -324 166 -437 201 -30 9
-62 19 -70 22 -8 3 -20 7 -27 9 -6 1 -27 7 -46 13 -18 6 -67 18 -108 25 -41 8
-84 17 -97 20 -116 27 -612 28 -694 1 -7 -2 -31 -6 -53 -9 -76 -11 -110 -18
-127 -27 -10 -5 -18 -8 -18 -5 0 7 -240 -68 -295 -93 -115 -52 -325 -159 -335
-172 -3 -3 -16 -12 -29 -19 -14 -7 -30 -17 -35 -21 -32 -26 -107 -79 -111 -79
-2 0 -15 -10 -28 -22 -13 -13 -43 -39 -66 -57 -74 -60 -213 -202 -292 -301
-54 -67 -164 -230 -197 -292 -15 -30 -32 -60 -36 -67 -5 -8 -16 4 -33 36 -14
26 -45 79 -69 116 -24 37 -44 72 -44 76 0 5 -4 11 -8 13 -4 2 -23 25 -42 53
-19 27 -50 66 -67 85 -18 19 -33 39 -33 43 0 16 -301 307 -318 307 -3 0 -17
11 -31 24 -37 33 -182 131 -241 162 -28 14 -53 30 -56 35 -3 5 -9 7 -14 4 -5
-3 -11 -1 -15 5 -4 7 -76 45 -105 55 -3 1 -17 7 -32 13 -16 7 -40 17 -55 24
-16 6 -31 12 -35 13 -5 2 -10 4 -13 5 -3 1 -8 3 -12 4 -5 1 -12 4 -18 7 -9 6
-137 46 -175 55 -8 2 -33 8 -55 14 -22 6 -51 13 -65 15 -14 3 -34 7 -46 10
-91 20 -463 51 -477 39z"/>
</g>
</svg>
