<svg xmlns="http://www.w3.org/2000/svg" width="18.615" height="18.45" viewBox="0 0 18.615 18.45"><defs><style>.a{fill:#a0a1b6;stroke:#a0a1b6;stroke-width:0.5px;}</style></defs><g transform="translate(0.25 0.246)"><g transform="translate(0 1.286)"><path class="a" d="M14.745,41.83a.641.641,0,0,0-.641.641v6.411a.641.641,0,0,1-.641.641H1.923a.641.641,0,0,1-.641-.641V36.06a.641.641,0,0,1,.641-.641H9.616a.641.641,0,1,0,0-1.282H1.923A1.923,1.923,0,0,0,0,36.06V48.882a1.923,1.923,0,0,0,1.923,1.923H13.463a1.923,1.923,0,0,0,1.923-1.923V42.471A.641.641,0,0,0,14.745,41.83Z" transform="translate(0 -34.137)"/></g><g transform="translate(3.847 0.004)"><g transform="translate(0 0)"><path class="a" d="M115.794.723a2.454,2.454,0,0,0-3.471,0l-8.444,8.444a.648.648,0,0,0-.155.251l-1.282,3.846a.641.641,0,0,0,.608.844.651.651,0,0,0,.2-.033l3.846-1.282a.641.641,0,0,0,.251-.155l8.444-8.444A2.454,2.454,0,0,0,115.794.723Zm-.907,2.565-8.334,8.334-2.49.831.829-2.487,8.337-8.334a1.171,1.171,0,1,1,1.658,1.655Z" transform="translate(-102.409 -0.004)"/></g></g></g></svg>