<svg xmlns="http://www.w3.org/2000/svg" width="344.42" height="186.885" viewBox="0 0 344.42 186.885">
  <g id="Group_1166" data-name="Group 1166" transform="translate(-107.58 -8.916)">
    <g id="Layer_4" data-name="Layer 4" transform="translate(107.58 8.916)">
      <path id="Rectangle_1799" data-name="Rectangle 1799" d="M15,0H329.42a15,15,0,0,1,15,15V186.665a0,0,0,0,1,0,0H0a0,0,0,0,1,0,0V15A15,15,0,0,1,15,0Z" transform="translate(0 0)" fill="#c3c3e5"/>
    </g>
    <g id="Layer_1" data-name="Layer 1" transform="translate(146 24.189)">
      <g id="Group_1144" data-name="Group 1144" transform="translate(95.381 65.708)">
        <g id="Group_1143" data-name="Group 1143" transform="translate(0 0)">
          <g id="Group_1134" data-name="Group 1134" transform="translate(3.853 2.648)">
            <ellipse id="Ellipse_353" data-name="Ellipse 353" cx="8.722" cy="8.722" rx="8.722" ry="8.722" transform="translate(0 8.334) rotate(-28.536)" fill="#0f2e4a"/>
          </g>
          <g id="Group_1135" data-name="Group 1135" transform="translate(0 11.657)">
            <path id="Rectangle_1800" data-name="Rectangle 1800" d="M39.848,0h0a0,0,0,0,1,0,0V17.822A22.026,22.026,0,0,1,17.822,39.848H0a0,0,0,0,1,0,0v0A39.848,39.848,0,0,1,39.848,0Z" transform="translate(39.848 39.848) rotate(180)" fill="#0f2e4a"/>
          </g>
          <g id="Group_1136" data-name="Group 1136" transform="translate(17.147 25.268)">
            <path id="Path_1559" data-name="Path 1559" d="M871.625,410.684a3.165,3.165,0,0,1,3.165,3.165h0v-3.165h-3.165Z" transform="translate(-870.78 -410.684)" fill="#eb8f4d"/>
          </g>
          <g id="Group_1137" data-name="Group 1137" transform="translate(5.622 30.454)">
            <path id="Path_1560" data-name="Path 1560" d="M871.245,448.61A18.629,18.629,0,0,0,853.459,430c-.277-.01-.553-.021-.841-.021h-6.11c-.318,0-.635.01-.953.021a18.64,18.64,0,0,0-17.673,18.605v56.6h43.362Z" transform="translate(-827.883 -429.984)" fill="#7c9fe2"/>
          </g>
          <path id="Path_1561" data-name="Path 1561" d="M860.124,432.931v40.891a8.457,8.457,0,1,0,16.914,0V430.061h-7.9A18.574,18.574,0,0,0,860.124,432.931Z" transform="translate(-845.84 -399.587)" fill="#fff"/>
          <g id="Group_1138" data-name="Group 1138" transform="translate(12.826 0.362)">
            <path id="Path_1562" data-name="Path 1562" d="M858.919,342.993h3.245a14.309,14.309,0,0,0,14.309-14.309v-.689a10.015,10.015,0,0,0-10.015-10.015h-1.746A10.015,10.015,0,0,0,854.7,327.995v10.777A4.222,4.222,0,0,0,858.919,342.993Z" transform="translate(-854.697 -317.98)" fill="#f77257"/>
          </g>
          <g id="Group_1139" data-name="Group 1139" transform="translate(21.158 20.427)">
            <path id="Path_1563" data-name="Path 1563" d="M885.707,407.567l10.036-4.861V392.663H885.707Z" transform="translate(-885.707 -392.663)" fill="#f77257"/>
          </g>
          <g id="Group_1140" data-name="Group 1140" transform="translate(11.397 16.228)">
            <path id="Path_1564" data-name="Path 1564" d="M849.894,380.051h.914v-3.016l-1.354,2.235A.515.515,0,0,0,849.894,380.051Z" transform="translate(-849.379 -377.035)" fill="#f77257"/>
          </g>
          <g id="Group_1141" data-name="Group 1141" transform="translate(22.144 5.2)">
            <path id="Path_1565" data-name="Path 1565" d="M898.427,354.514c6.12-8.809,5.752-15.611,5.752-15.611l-6.627-2.913c-4.555,0-8.174,1.241-8.174,5.8l1.309.186C889.377,355.783,898.427,354.514,898.427,354.514Z" transform="translate(-889.377 -335.99)" fill="#0f2e4a"/>
          </g>
          <g id="Group_1142" data-name="Group 1142" transform="translate(13.138)">
            <path id="Rectangle_1801" data-name="Rectangle 1801" d="M0,0H10.7A15.967,15.967,0,0,1,26.669,15.967v0a0,0,0,0,1,0,0h-10.7A15.967,15.967,0,0,1,0,0V0A0,0,0,0,1,0,0Z" transform="translate(26.669 15.967) rotate(180)" fill="#0f2e4a"/>
          </g>
        </g>
        <path id="Path_1566" data-name="Path 1566" d="M860.124,432.931v5.9a8.457,8.457,0,0,0,8.457,8.457h0a8.457,8.457,0,0,0,8.457-8.457v-8.773h-7.9A18.574,18.574,0,0,0,860.124,432.931Z" transform="translate(-845.84 -399.587)" fill="#f77257"/>
      </g>
      <g id="Group_1160" data-name="Group 1160" transform="translate(0 61.822)">
        <g id="Group_1145" data-name="Group 1145" transform="translate(74.115 87.62)">
          <path id="Path_1567" data-name="Path 1567" d="M739.577,633.422h0a7.281,7.281,0,0,0-9.111-4.8l-2.659.825,2.158,6.953Z" transform="translate(-727.806 -628.298)" fill="#f77257"/>
        </g>
        <g id="Group_1146" data-name="Group 1146" transform="translate(6.026)">
          <ellipse id="Ellipse_354" data-name="Ellipse 354" cx="19.015" cy="19.015" rx="19.015" ry="19.015" fill="#0f2e4a"/>
        </g>
        <g id="Group_1147" data-name="Group 1147" transform="translate(28.021 38.91)">
          <path id="Path_1568" data-name="Path 1568" d="M559.429,447a3.188,3.188,0,0,0-3.187,3.188h0V447h3.187Z" transform="translate(-556.242 -446.998)" fill="#f77257"/>
        </g>
        <g id="Group_1148" data-name="Group 1148" transform="translate(0 44.129)">
          <path id="Path_1569" data-name="Path 1569" d="M495.611,475.929a9.5,9.5,0,0,0-9.5-9.5H461.451a9.5,9.5,0,0,0-9.5,9.5v55.928h43.664Z" transform="translate(-451.947 -466.425)" fill="#48509f"/>
        </g>
        <g id="Group_1149" data-name="Group 1149" transform="translate(14.483 13.829)">
          <path id="Rectangle_1802" data-name="Rectangle 1802" d="M10.371,0h1.187A10.371,10.371,0,0,1,21.928,10.371V20.817a4.372,4.372,0,0,1-4.372,4.372H14.818A14.818,14.818,0,0,1,0,10.371v0A10.371,10.371,0,0,1,10.371,0Z" fill="#f77257"/>
        </g>
        <g id="Group_1150" data-name="Group 1150" transform="translate(12.715 10.938)">
          <path id="Path_1570" data-name="Path 1570" d="M522.75,351.884l-8.027-.1a3.668,3.668,0,0,0-3.712,3.668v9.187c-6.483,0-11.738-4.871-11.738-10.879s5.255-10.879,11.738-10.879S522.75,345.875,522.75,351.884Z" transform="translate(-499.273 -342.884)" fill="#0f2e4a"/>
        </g>
        <g id="Group_1151" data-name="Group 1151" transform="translate(17.915 34.035)">
          <path id="Path_1571" data-name="Path 1571" d="M528.734,443.86l-10.106-4.6V428.851h10.106Z" transform="translate(-518.628 -428.851)" fill="#f77257"/>
        </g>
        <g id="Group_1152" data-name="Group 1152" transform="translate(36.411 27.858)">
          <path id="Path_1572" data-name="Path 1572" d="M588.79,410.221h-1.32v-4.359l1.956,3.23A.744.744,0,0,1,588.79,410.221Z" transform="translate(-587.47 -405.862)" fill="#f77257"/>
        </g>
        <g id="Group_1153" data-name="Group 1153" transform="translate(12.119 18.702)">
          <path id="Path_1573" data-name="Path 1573" d="M502.849,390.435c-6.163-8.871-5.792-15.721-5.792-15.721l6.674-2.934c4.587,0,8.232,1.25,8.232,5.837l-1.318.187C511.963,391.712,502.849,390.435,502.849,390.435Z" transform="translate(-497.053 -371.781)" fill="#0f2e4a"/>
        </g>
        <g id="Group_1154" data-name="Group 1154" transform="translate(25.04 18.702)">
          <path id="Rectangle_1803" data-name="Rectangle 1803" d="M0,0H5.532a0,0,0,0,1,0,0V1.984A5.532,5.532,0,0,1,0,7.516H0a0,0,0,0,1,0,0V0A0,0,0,0,1,0,0Z" fill="#0f2e4a"/>
        </g>
        <g id="Group_1155" data-name="Group 1155" transform="translate(25.677 25.812)">
          <rect id="Rectangle_1804" data-name="Rectangle 1804" width="2.151" height="4.226" fill="#0f2e4a"/>
        </g>
        <g id="Group_1156" data-name="Group 1156" transform="translate(20.743 26.088)">
          <path id="Path_1574" data-name="Path 1574" d="M534.087,406.138H531.62a2.467,2.467,0,0,1-2.467-2.467v-1.93a2.467,2.467,0,0,1,2.467-2.467h0a2.467,2.467,0,0,1,2.467,2.467Z" transform="translate(-529.153 -399.273)" fill="#f77257"/>
        </g>
        <g id="Group_1158" data-name="Group 1158" transform="translate(24.453 47.371)">
          <g id="Group_1157" data-name="Group 1157">
            <path id="Path_1575" data-name="Path 1575" d="M558.658,478.489l.342,2.932c.228,1.881.563,4.574,1,7.8s.966,6.979,1.612,10.959c.324,1.988.678,4.034,1.078,6.066q.154.756.31,1.517l.164.746.083.373a2.393,2.393,0,0,1,.042.261,11.92,11.92,0,0,0,.378,1.911,1.9,1.9,0,0,0,.5.867,4.817,4.817,0,0,0,.8.578c.289.175.6.328.922.484a8.584,8.584,0,0,0,1.147.457c1.929.65,3.961,1.177,5.931,1.658,3.953.953,7.726,1.692,10.962,2.3s5.954,1.053,7.857,1.36l3,.469.016,7.645-2.78-.015c-1.744-.018-4.226-.055-7.216-.144s-6.486-.229-10.305-.495c-1.913-.136-3.906-.3-6-.547-1.059-.129-2.129-.266-3.272-.455l-.912-.154-1.42-.3-.711-.15-.7-.192c-.461-.135-.936-.241-1.385-.4s-.894-.328-1.335-.5L557.5,522.9c-.395-.247-.773-.516-1.161-.775a5.058,5.058,0,0,1-1.089-.876l-.969-.994c-.294-.358-.571-.732-.857-1.1l-.736-1.2c-.252-.4-.435-.843-.656-1.261-.448-.849-.769-1.7-1.15-2.54l-.611-1.533c-.373-.972-.719-1.914-1.044-2.829-1.294-3.654-2.333-6.967-3.218-9.821s-1.574-5.214-2.059-6.871l-.754-2.6c-1.148-3.995,2.065-8.382,7.138-9.749Z" transform="translate(-542.964 -478.489)" fill="#48509f"/>
          </g>
        </g>
        <g id="Group_1159" data-name="Group 1159" transform="translate(26.667 88.886)">
          <path id="Path_1576" data-name="Path 1576" d="M555.4,633.012h0a7.931,7.931,0,0,1,1.924,11.051l-2.75,3.91h0a7.932,7.932,0,0,1-1.924-11.051Z" transform="translate(-551.204 -633.012)" fill="#f77257"/>
        </g>
      </g>
      <g id="Group_1161" data-name="Group 1161" transform="translate(48.594 59.672)">
        <ellipse id="Ellipse_355" data-name="Ellipse 355" cx="22.15" cy="22.15" rx="22.15" ry="22.15" fill="#fff"/>
        <path id="Path_1577" data-name="Path 1577" d="M759.908,422.252l-9.073-4.764,4.764-9.073Z" transform="translate(-719.127 -377.72)" fill="#fff"/>
      </g>
      <g id="Group_1165" data-name="Group 1165" transform="translate(36.691 0)">
        <g id="Group_1162" data-name="Group 1162">
          <ellipse id="Ellipse_356" data-name="Ellipse 356" cx="33.667" cy="33.667" rx="33.667" ry="33.667" fill="#f77257"/>
          <path id="Path_1578" data-name="Path 1578" d="M616.126,288.872l3.728-15.124,15.124,3.728Z" transform="translate(-608.707 -219.562)" fill="#f77257"/>
        </g>
        <g id="Group_1163" data-name="Group 1163" transform="translate(15.535 28.095)">
          <ellipse id="Ellipse_357" data-name="Ellipse 357" cx="3.997" cy="3.997" rx="3.997" ry="3.997" transform="translate(26.249 7.755) rotate(-67.714)" fill="#fff"/>
          <ellipse id="Ellipse_358" data-name="Ellipse 358" cx="3.997" cy="3.997" rx="3.997" ry="3.997" transform="translate(12.997 6.785) rotate(-57.391)" fill="#fff"/>
          <ellipse id="Ellipse_359" data-name="Ellipse 359" cx="3.997" cy="3.997" rx="3.997" ry="3.997" transform="matrix(0.578, -0.816, 0.816, 0.578, 0, 6.525)" fill="#fff"/>
        </g>
      </g>
    </g>
    <g id="Group_1193" data-name="Group 1193" transform="translate(314.311 75.462)">
      <g id="Group_1187" data-name="Group 1187" transform="translate(0 15.999)">
        <g id="Group_1185" data-name="Group 1185" transform="translate(0 0)">
          <g id="Group_1167" data-name="Group 1167" transform="translate(26.274)">
            <path id="Rectangle_1805" data-name="Rectangle 1805" d="M0,0H26.915a0,0,0,0,1,0,0V15.713A13.457,13.457,0,0,1,13.457,29.171h0A13.457,13.457,0,0,1,0,15.713V0A0,0,0,0,1,0,0Z" transform="translate(26.915 29.171) rotate(180)" fill="#0f2e4a"/>
          </g>
          <g id="Group_1168" data-name="Group 1168" transform="translate(29.666 15.783)">
            <path id="Path_1579" data-name="Path 1579" d="M1101.7,510.34c0,11.79,1.95,21.349,12.009,21.349s18.214-9.558,18.214-21.349-8.154-21.349-18.214-21.349S1101.7,498.549,1101.7,510.34Z" transform="translate(-1101.698 -488.991)" fill="#0f2e4a"/>
          </g>
          <g id="Group_1169" data-name="Group 1169" transform="translate(34.29 60.388)">
            <path id="Path_1580" data-name="Path 1580" d="M1160.307,606.6l-1.928-6.339-45.146,13.729,3.624,11.917Z" transform="translate(-1113.234 -600.264)" fill="#48509f"/>
          </g>
          <g id="Group_1170" data-name="Group 1170" transform="translate(76.773 58.459)">
            <path id="Path_1581" data-name="Path 1581" d="M1229.3,597.007h0a6.872,6.872,0,0,0-9.67.969h0a1.848,1.848,0,0,0,.261,2.6l3.888,3.18Z" transform="translate(-1219.212 -595.454)" fill="#f77257"/>
          </g>
          <g id="Group_1171" data-name="Group 1171" transform="translate(9.816 28.019)">
            <ellipse id="Ellipse_360" data-name="Ellipse 360" cx="18.213" cy="14.059" rx="18.213" ry="14.059" fill="#0f2e4a"/>
          </g>
          <g id="Group_1172" data-name="Group 1172" transform="translate(41.675 26.059)">
            <path id="Path_1582" data-name="Path 1582" d="M1134.418,514.627a2.761,2.761,0,0,0-2.762,2.761h0v-2.761h2.762Z" transform="translate(-1131.656 -514.627)" fill="#f77257"/>
          </g>
          <g id="Group_1173" data-name="Group 1173" transform="translate(17.398 30.579)">
            <path id="Path_1583" data-name="Path 1583" d="M1071.093,542.152v57.51h37.828v-57.51a16.233,16.233,0,0,0-8.844-14.464,15.809,15.809,0,0,0-4.684-1.556,16.06,16.06,0,0,0-2.722-.231h-5.327c-.242,0-.49.006-.727.017A16.254,16.254,0,0,0,1071.093,542.152Z" transform="translate(-1071.093 -525.902)" fill="#48509f"/>
          </g>
          <g id="Group_1174" data-name="Group 1174" transform="translate(32.921 30.81)">
            <path id="Path_1584" data-name="Path 1584" d="M1109.818,526.478v61.686h13.46v-60.13a15.81,15.81,0,0,0-4.684-1.556Z" transform="translate(-1109.818 -526.478)" fill="#fff"/>
          </g>
          <g id="Group_1175" data-name="Group 1175" transform="translate(32.921 30.579)">
            <path id="Path_1585" data-name="Path 1585" d="M1109.818,525.919v18.539h13.46V527.689a15.808,15.808,0,0,0-4.684-1.556,16.059,16.059,0,0,0-2.722-.231h-5.327C1110.3,525.9,1110.055,525.908,1109.818,525.919Z" transform="translate(-1109.818 -525.902)" fill="#f77257"/>
          </g>
          <g id="Group_1176" data-name="Group 1176" transform="translate(29.947 4.33)">
            <path id="Rectangle_1806" data-name="Rectangle 1806" d="M8.985,0h1.028A8.985,8.985,0,0,1,19,8.985v9.05a3.787,3.787,0,0,1-3.787,3.787H12.837A12.837,12.837,0,0,1,0,8.985v0A8.985,8.985,0,0,1,8.985,0Z" fill="#f77257"/>
          </g>
          <g id="Group_1177" data-name="Group 1177" transform="translate(32.92 21.835)">
            <path id="Path_1586" data-name="Path 1586" d="M1118.57,517.093l-8.755-4.24V504.09h8.755Z" transform="translate(-1109.815 -504.09)" fill="#f77257"/>
          </g>
          <g id="Group_1178" data-name="Group 1178" transform="translate(48.944 18.172)">
            <path id="Path_1587" data-name="Path 1587" d="M1150.586,497.584h-.8v-2.632l1.181,1.95A.449.449,0,0,1,1150.586,497.584Z" transform="translate(-1149.789 -494.952)" fill="#f77257"/>
          </g>
          <g id="Group_1179" data-name="Group 1179" transform="translate(31.464 3.335)">
            <path id="Path_1588" data-name="Path 1588" d="M1122.654,462.928h-.387a6.675,6.675,0,0,0-6.736,6.613h-9.348v-11.6h16.6Z" transform="translate(-1106.183 -457.938)" fill="#0f2e4a"/>
          </g>
          <g id="Group_1180" data-name="Group 1180" transform="translate(27.636 7.797)">
            <path id="Rectangle_1807" data-name="Rectangle 1807" d="M13.309,0h0a0,0,0,0,1,0,0V15.97a0,0,0,0,1,0,0H0a0,0,0,0,1,0,0V13.309A13.309,13.309,0,0,1,13.309,0Z" transform="translate(13.309 15.97) rotate(180)" fill="#0f2e4a"/>
          </g>
          <g id="Group_1182" data-name="Group 1182" transform="translate(0 33.928)">
            <g id="Group_1181" data-name="Group 1181">
              <path id="Path_1589" data-name="Path 1589" d="M1051.751,534.258c-4.166,5.292-8.223,10.565-12.246,15.935-2.007,2.683-4,5.384-5.949,8.139-.976,1.378-1.942,2.768-2.889,4.206l-.354.544c-.118.183-.224.352-.391.591l-.894,1.387a11.725,11.725,0,0,0-1.3,2.851,8.706,8.706,0,0,0,.661,3.821c.1.305.217.6.333.9s.235.609.342.842c.214.493.439.973.663,1.453.9,1.911,1.865,3.764,2.845,5.6,1.966,3.669,4.017,7.285,6.116,10.845l6.367-2.614c-1.486-3.658-2.962-7.465-4.3-11.172-.664-1.855-1.3-3.71-1.845-5.475l-.422-1.446.108-.125c.77-.894,1.631-1.84,2.513-2.782,1.762-1.89,3.619-3.794,5.493-5.687,3.754-3.79,7.606-7.557,11.482-11.295,2.687-2.591,2.245-7.444-1-10.882Z" transform="translate(-1027.692 -534.258)" fill="#48509f"/>
            </g>
          </g>
          <g id="Group_1183" data-name="Group 1183" transform="translate(10.998 85.941)">
            <path id="Path_1590" data-name="Path 1590" d="M1062.129,664.011l.038.05a5.993,5.993,0,0,1-1.241,8.384h0a2.727,2.727,0,0,1-3.814-.565l-1.984-2.766Z" transform="translate(-1055.127 -664.011)" fill="#f77257"/>
          </g>
          <g id="Group_1184" data-name="Group 1184" transform="translate(32.921 92.495)">
            <rect id="Rectangle_1808" data-name="Rectangle 1808" width="13.46" height="11.844" transform="translate(13.46 11.844) rotate(180)" fill="#0f2e4a"/>
          </g>
        </g>
        <g id="Group_1186" data-name="Group 1186" transform="translate(49.739 27.203)">
          <path id="Path_1591" data-name="Path 1591" d="M1152.751,595.51H1185.1a.98.98,0,0,1,.981.98h0a.98.98,0,0,1-.981.98h-32.349a.98.98,0,0,1-.98-.98h0A.98.98,0,0,1,1152.751,595.51Z" transform="translate(-1151.771 -564.231)" fill="#fff"/>
          <rect id="Rectangle_1809" data-name="Rectangle 1809" width="32.939" height="33.239" rx="5.152" transform="translate(55.368 33.239) rotate(180)" fill="#0f2e4a"/>
        </g>
      </g>
      <g id="Group_1188" data-name="Group 1188" transform="translate(98.361 17.533)">
        <ellipse id="Ellipse_361" data-name="Ellipse 361" cx="10.566" cy="10.566" rx="10.566" ry="10.566" transform="translate(0 7.759) rotate(-21.541)" fill="#fff"/>
        <path id="Path_1592" data-name="Path 1592" d="M1277.345,499.311l2.953-3.9,3.9,2.953Z" transform="translate(-1275.629 -478.591)" fill="#fff"/>
      </g>
      <g id="Group_1189" data-name="Group 1189" transform="translate(108.643 46.022)">
        <ellipse id="Ellipse_362" data-name="Ellipse 362" cx="5.783" cy="5.783" rx="5.783" ry="5.783" transform="matrix(0.661, -0.751, 0.751, 0.661, 0, 8.684)" fill="#f77257"/>
        <path id="Path_1593" data-name="Path 1593" d="M1301.128,538.491l2.671-.171.171,2.67Z" transform="translate(-1300.161 -532.787)" fill="#f77257"/>
      </g>
      <g id="Group_1192" data-name="Group 1192" transform="translate(64.46 0)">
        <g id="Group_1190" data-name="Group 1190" transform="translate(0 0)">
          <ellipse id="Ellipse_363" data-name="Ellipse 363" cx="15.425" cy="15.425" rx="15.425" ry="15.425" transform="translate(0 7.961) rotate(-14.954)" fill="#7c9fe2"/>
          <path id="Path_1594" data-name="Path 1594" d="M1205.6,487.195l1.708-6.929,6.93,1.708Z" transform="translate(-1198.744 -451.982)" fill="#7c9fe2"/>
        </g>
        <g id="Group_1191" data-name="Group 1191" transform="translate(11.297 17.052)">
          <path id="Path_1595" data-name="Path 1595" d="M1246.27,454.077a1.832,1.832,0,1,0,1.832-1.832A1.832,1.832,0,0,0,1246.27,454.077Z" transform="translate(-1234.407 -452.245)" fill="#fff"/>
          <path id="Path_1596" data-name="Path 1596" d="M1231.474,454.077a1.831,1.831,0,1,0,1.831-1.832A1.831,1.831,0,0,0,1231.474,454.077Z" transform="translate(-1225.542 -452.245)" fill="#fff"/>
          <path id="Path_1597" data-name="Path 1597" d="M1216.677,454.077a1.832,1.832,0,1,0,1.832-1.832A1.831,1.831,0,0,0,1216.677,454.077Z" transform="translate(-1216.677 -452.245)" fill="#fff"/>
        </g>
      </g>
    </g>
  </g>
</svg>
