<svg xmlns="http://www.w3.org/2000/svg" width="52.669" height="54.23" viewBox="0 0 52.669 54.23">
  <g id="Group_1273" data-name="Group 1273" transform="translate(-139.128 -214.758)">
    <g id="Layer_1" data-name="Layer 1" transform="translate(111.423 213.926)">
      <path id="Path_1644" data-name="Path 1644" d="M132.326,224.318a10.067,10.067,0,0,0,.794,3.932c.479,1.134-2.509,4.417-1.671,5.294s5.5-.649,6.6-.118a10.105,10.105,0,1,0-5.724-9.108Z" transform="translate(-73.921 -213.382)" fill="#dadff2"/>
    </g>
    <g id="Layer_3" data-name="Layer 3" transform="translate(139.128 239.53)">
      <circle id="Ellipse_368" data-name="Ellipse 368" cx="13.984" cy="13.984" r="13.984" fill="#b4baf0"/>
      <circle id="Ellipse_369" data-name="Ellipse 369" cx="8.221" cy="8.221" r="8.221" transform="translate(5.602 5.763)" fill="#fff"/>
      <circle id="Ellipse_370" data-name="Ellipse 370" cx="5.232" cy="5.232" r="5.232" transform="translate(8.592 8.753)" fill="#514bd9"/>
      <circle id="Ellipse_371" data-name="Ellipse 371" cx="2.242" cy="2.242" r="2.242" transform="translate(8.592 8.753)" fill="#fff"/>
      <circle id="Ellipse_372" data-name="Ellipse 372" cx="13.844" cy="13.844" r="13.844" transform="translate(24.98 0.14)" fill="#b4baf0"/>
      <circle id="Ellipse_373" data-name="Ellipse 373" cx="8.221" cy="8.221" r="8.221" transform="translate(30.764 5.763)" fill="#fff"/>
      <circle id="Ellipse_374" data-name="Ellipse 374" cx="5.232" cy="5.232" r="5.232" transform="translate(33.754 8.753)" fill="#514bd9"/>
      <circle id="Ellipse_375" data-name="Ellipse 375" cx="2.242" cy="2.242" r="2.242" transform="translate(33.754 8.753)" fill="#fff"/>
      <path id="Path_1645" data-name="Path 1645" d="M133.017,228.972l4.277,4.277-4.277,7.35-4.277-7.35Z" transform="translate(-106.455 -211.141)" fill="#514bd9"/>
    </g>
    <g id="Isolation_Mode" data-name="Isolation Mode" transform="translate(172.721 223.963)">
      <circle id="Ellipse_349" data-name="Ellipse 349" cx="1.331" cy="1.331" r="1.331" transform="translate(11.597)" fill="#fff"/>
      <circle id="Ellipse_349-2" data-name="Ellipse 349-2" cx="1.331" cy="1.331" r="1.331" transform="translate(5.799)" fill="#fff"/>
      <circle id="Ellipse_349-3" data-name="Ellipse 349-3" cx="1.331" cy="1.331" r="1.331" fill="#fff"/>
    </g>
  </g>
</svg>
