<svg xmlns="http://www.w3.org/2000/svg" viewBox="0 0 1224 792"><defs><style>.cls-1{fill:#f0f0f8;}.cls-14,.cls-2{fill:#fff;}.cls-3{fill:#c3c7df;}.cls-4{fill:#4a578f;}.cls-5{fill:#44539a;}.cls-6{fill:#707abb;}.cls-7{fill:#dadae5;}.cls-8{fill:#7e8ac4;}.cls-9{fill:#e9e9f5;}.cls-10{fill:#50609a;}.cls-11{font-size:18px;fill:#314273;}.cls-11,.cls-14{font-family:Roboto-Regular, Roboto;}.cls-12{font-size:50.4px;fill:#272848;font-family:Roboto-Bold, Roboto;font-weight:700;}.cls-13{fill:#3b4e8c;}.cls-14{font-size:19.8px;}</style></defs><title>404 PAGE</title><g id="Layer_4" data-name="Layer 4"><rect class="cls-1" width="1224" height="792"/></g><g id="Default_copy" data-name="Default copy"><path class="cls-2" d="M1057.86,390.74a173.57,173.57,0,0,1-9.62,65.65c.83-2.36,1.6-4.73,2.33-7.13a22.07,22.07,0,0,0-5.25,3.45,20.53,20.53,0,0,0-40.86,2.87,25.07,25.07,0,0,0-10.4-12.25,9.88,9.88,0,1,0-8.15-3.12,25.07,25.07,0,0,0-29.26,19.25L938.9,436.58l4.39,1.12C936.43,411.1,935,408,934,406.19a11,11,0,0,0-2-3,7.77,7.77,0,0,0-1.93-1.38,9.94,9.94,0,0,0-3.85-.95l9.35-7.25a2.64,2.64,0,1,0-3.24-4.17l-1.14.88q-6.42-5.52-17.17-9.07a2.64,2.64,0,0,0-3.21-4.19l12.53-9.72c3.54-2.62,3-5,2.47-6.73s-1.16-2.81-6.31-9.49c2.11-1.63,4.07-3.13,5.88-4.54l1.32-1,3.69-2.86c17.38-13.48,17.84-14.15,18.15-14.91s.49-1.62-1-3.38l-8.27-10c-1.46-1.87-4.49-2.56-8.25-2.77l-22.28,3.18-16,2.28c-8-10.18-14.33-18.3-20-24.9a171.62,171.62,0,0,0-17.36-17.46A188.34,188.34,0,0,0,836,259.73a185,185,0,0,0-21.41-12.31c-2.82-1.37-5.55-2.61-8.17-3.7l1.64-.81a173.65,173.65,0,0,1,249.8,147.83Zm-82.22,39.9a4.39,4.39,0,1,0-5.68,2.53A4.38,4.38,0,0,0,975.64,430.64Z"/><path class="cls-3" d="M1050.57,449.26c-.73,2.4-1.5,4.77-2.33,7.13,0,.07,0,.14-.07.21-.78,2.19-1.59,4.36-2.45,6.51-.13.34-.27.67-.4,1-.36.87-.72,1.74-1.09,2.61,0,.09-.07.18-.11.27-.4.93-.8,1.85-1.21,2.77l-.36.79c-.44,1-.9,2-1.36,2.93l-.06.12c-.43.92-.88,1.83-1.34,2.74-.17.36-.35.71-.53,1.07-.45.89-.91,1.78-1.38,2.66,0,.08-.08.15-.11.22-.41.77-.82,1.52-1.24,2.28l-.57,1q-.7,1.26-1.44,2.52c-.17.3-.34.6-.52.9-.57,1-1.14,1.91-1.73,2.86s-1.3,2.1-2,3.13a.43.43,0,0,1,0,.07c-.66,1-1.32,2-2,3s-1.23,1.81-1.86,2.7q-2.28,3.24-4.68,6.35c-.59.75-1.17,1.49-1.77,2.23-.31.39-.62.78-.94,1.16-.62.78-1.26,1.55-1.91,2.31s-1.39,1.64-2.11,2.45-1.56,1.76-2.35,2.63-1.69,1.83-2.55,2.73l-.11.12c-.85.89-1.71,1.78-2.58,2.65q-2.79,2.79-5.7,5.46c-.85.78-1.7,1.55-2.57,2.3l-.28.25c-.58.51-1.16,1-1.75,1.51s-1,.89-1.57,1.32-.94.79-1.41,1.16-1.11.91-1.67,1.34c-.36.3-.72.59-1.09.86-.78.63-1.58,1.24-2.38,1.83-1.28,1-2.59,1.94-3.91,2.88l-1.34.94-.07.05c-.74.52-1.49,1-2.25,1.54l-.23.16-.26.17c-.78.52-1.56,1-2.35,1.55l-.1.06c-.77.5-1.55,1-2.33,1.48-1,.65-2.11,1.29-3.17,1.92q-2.44,1.46-4.93,2.82l-1.08.59c-.56.3-1.11.6-1.67.88l-1.64.86-1.63.83q-2.62,1.31-5.28,2.52l-2,.91c-1.35.6-2.72,1.19-4.09,1.75l-2,.83-2.06.81-2.73,1c-.92.33-1.84.66-2.77,1l-.07,0-2.79.94-2.28.72-1.94.59-2.74.79-2.45.67c-1,.27-2.06.54-3.1.79l-2.41.57-.8.18c-1,.23-2,.44-3,.65s-2.09.42-3.14.62L914,570l-1.54.26-2.53.4c-1,.14-1.94.28-2.91.4l-.41.06c-2,.25-4,.48-6,.67l-.59,0q-2.94.27-5.9.43l-.36,0-2.58.12-.41,0,.27-1.07a14.74,14.74,0,0,1,17.13-21A21.42,21.42,0,1,1,933.07,516a18.54,18.54,0,0,1,13.71-29L919.41,451.7v4.53C895.34,443,892.74,440.8,891.19,439.4a11,11,0,0,1-2.45-2.68,8.07,8.07,0,0,1-.86-2.21,10.08,10.08,0,0,1,0-4l6.69-5.19c-.79,6.31,1.81,10,17,17.8l-.21-5.59L929.08,444q-.95-9.36-1.88-18.71l5.36,1.59c-3.74-16.67-6.7-20.11-13-20.91l6.69-5.19a9.94,9.94,0,0,1,3.85.95,7.77,7.77,0,0,1,1.93,1.38,11,11,0,0,1,2,3c1,1.85,2.43,4.91,9.29,31.51l-4.39-1.12,17.75,22.88a25.07,25.07,0,0,1,29.26-19.25,9.89,9.89,0,1,1,8.15,3.12,25.07,25.07,0,0,1,10.4,12.25,20.53,20.53,0,0,1,40.86-2.87A22.07,22.07,0,0,1,1050.57,449.26Z"/><path class="cls-3" d="M973.12,425a4.4,4.4,0,1,1-5.68,2.53A4.38,4.38,0,0,1,973.12,425Z"/><path class="cls-4" d="M947.54,324.37c1.5,1.76,1.33,2.62,1,3.38s-.77,1.43-18.15,14.91l-21.66-27.91L931,311.57c3.76.21,6.79.9,8.25,2.77Z"/><path class="cls-2" d="M919.41,451.7,946.78,487a18.54,18.54,0,0,0-13.71,29,21.42,21.42,0,1,0-24.84,34.38,14.74,14.74,0,0,0-17.13,21,21.12,21.12,0,0,0-23,.42A173.65,173.65,0,0,1,756,282q4.4-4.81,9.12-9.29c.48,3.61,1.11,7.5,2,11.61a184.3,184.3,0,0,0,6.6,23.8,188.46,188.46,0,0,0,9.66,22.47,172,172,0,0,0,12.59,21.14c5,7.18,11.27,15.34,19.14,25.61l-6.17,14.91q-4.32,10.4-8.62,20.8c-.73,3.68-.82,6.79.63,8.67l7.67,10.5c1.32,1.89,2.2,1.94,3,1.82s1.57-.39,19-13.87l2.64-2.05,1.66-1.29,3.52-2.75,1.49-1.16,1.55-1.21c5.19,6.65,6.13,7.52,7.63,8.47s3.71,2.06,7.13-.72l12.52-9.71a2.64,2.64,0,0,0,3.27,4.14q.75,11.31,4.52,18.89l-1.14.89a2.64,2.64,0,0,0,3.24,4.17l9.34-7.25a10.08,10.08,0,0,0,0,4,8.07,8.07,0,0,0,.86,2.21,11,11,0,0,0,2.45,2.68c1.55,1.4,4.15,3.58,28.22,16.83Zm-24.88,96.36a7.88,7.88,0,1,0-10.89,2.37A7.88,7.88,0,0,0,894.53,548.06Z"/><path class="cls-5" d="M936.05,389.87a2.64,2.64,0,0,1-.47,3.7l-9.35,7.25L919.54,406l-24.93,19.35-6.69,5.19-9.34,7.25a2.64,2.64,0,0,1-3.24-4.17l1.14-.89L906,409.83l25.19-19.54h0l1.14-.88A2.65,2.65,0,0,1,936.05,389.87Z"/><path class="cls-5" d="M932.56,426.92l-5.36-1.59q.94,9.36,1.88,18.71l-17.66-6.47.21,5.59c-15.21-7.76-17.81-11.49-17-17.8L919.54,406C925.86,406.81,928.82,410.25,932.56,426.92Z"/><path class="cls-6" d="M931.2,390.28,906,409.83l-29.54,22.91q-3.76-7.58-4.52-18.89l18.1-14.05,4.41,5.65q1.57,2,4.37-.38c2-1.35,2.54-2.69,1.53-4l-4.44-5.78,18.1-14Q924.79,384.75,931.2,390.28Z"/><path class="cls-6" d="M908.74,314.75l21.66,27.91-3.69,2.86-1.32,1c-1.81,1.41-3.77,2.91-5.88,4.54l-.5-.64c-4.55-5.89-12.39-15.81-19.82-25.24L897.48,323c-1.1-1.41-2.21-2.81-3.32-4.22-.46-.59-.92-1.19-1.39-1.78Z"/><path class="cls-6" d="M925.82,360.57c.57,1.75,1.07,4.11-2.47,6.73L910.82,377l-16.38,12.71-22.22-28.65q-2.26-2.68-6.84.86L834.1,321.62l.74-.6a22.59,22.59,0,0,0-28.43-35.09l-22.34-28.79a175.66,175.66,0,0,1,22.35-13.42c2.62,1.09,5.35,2.33,8.17,3.7A185,185,0,0,1,836,259.73a188.34,188.34,0,0,1,19.36,14.94,171.62,171.62,0,0,1,17.36,17.46c5.72,6.6,12.06,14.72,20,24.9.47.59.93,1.19,1.39,1.78l3.32,4.22,1.71,2.17L919,350.44l.5.64C924.66,357.76,925.27,358.88,925.82,360.57Z"/><path class="cls-5" d="M914.49,377.51a2.63,2.63,0,0,1-.46,3.7l-18.1,14-3.23-4.17,1.74-1.35L910.82,377A2.63,2.63,0,0,1,914.49,377.51Z"/><path class="cls-7" d="M900.37,401c1,1.35.5,2.69-1.53,4q-2.79,2.34-4.37.38l-4.41-5.65,5.86-4.54h0Z"/><path class="cls-7" d="M895.93,395.25h0l-5.86,4.54-3.24-4.16,2.94-2.28,2.94-2.28Z"/><path class="cls-3" d="M892.16,537.17a7.88,7.88,0,1,1-10.89,2.37A7.88,7.88,0,0,1,892.16,537.17Z"/><path class="cls-5" d="M872.22,361.08l22.22,28.65-1.74,1.35-.08-.1q-5.39-7-10.46-13.43c-1.06-1.31-2.48-1.15-4.29.48q-6.25-8-12.49-16.09Q870,358.4,872.22,361.08Z"/><path class="cls-7" d="M892.62,391l.08.1-2.94,2.28L877.87,378c1.81-1.63,3.23-1.79,4.29-.48Q887.23,384,892.62,391Z"/><path class="cls-3" d="M891.1,571.32l-.27,1.07-3.52.09c-1,0-1.93,0-2.9,0l-2.33,0c-1.19,0-2.37,0-3.56-.08l-2-.08-2-.1c-1-.05-2-.12-2.94-.19l-1.53-.12-2-.18A21.12,21.12,0,0,1,891.1,571.32Z"/><path class="cls-5" d="M890.06,399.8,872,413.85a2.64,2.64,0,0,1-3.27-4.14L885.07,397l1.75-1.36Z"/><path class="cls-7" d="M889.76,393.36l-2.94,2.28a2.09,2.09,0,0,0-.14-.17L884,392q-3.9-5-7.59-9.85-1.51-2,1.45-4.14Z"/><path class="cls-5" d="M886.81,395.64,885.07,397l-22.22-28.65q-2-2.87,2.53-6.41,6.24,8,12.49,16.09-3,2.13-1.45,4.14Q880.11,387,884,392l2.67,3.45Z"/><path class="cls-8" d="M862.85,368.35,885.07,397l-16.38,12.71-12.52,9.71c-3.42,2.78-5.58,1.71-7.13.72s-2.44-1.82-7.63-8.47l-21.69-28.3-4.65-6.07c-7.87-10.27-14.17-18.43-19.14-25.61a172,172,0,0,1-12.59-21.14,188.46,188.46,0,0,1-9.66-22.47,184.3,184.3,0,0,1-6.6-23.8c-.84-4.11-1.47-8-2-11.61a172.78,172.78,0,0,1,18.94-15.53l22.34,28.79-.74.59a22.59,22.59,0,0,0,28.43,35.1l31.28,40.32Q860.82,365.5,862.85,368.35Z"/><path class="cls-6" d="M841.41,411.67l-1.55,1.21L838.37,414l-3.52,2.75-1.66,1.29-2.64,2.05q-10.83-14-21.65-27.92l6.17-14.91,4.65,6.07C827.47,393.52,836,404.7,840.91,411Z"/><path class="cls-5" d="M837.51,289.19A22.59,22.59,0,0,1,834.84,321l-.74.6-3-3.92.33-.26a17.38,17.38,0,0,0,4.72-6c.11-.24.22-.47.32-.71a4.35,4.35,0,0,0,.25-.59,17.14,17.14,0,0,0,.57-1.71l.15-.57.09-.41c.1-.47.18-.93.24-1.4a17.18,17.18,0,0,0,.06-4.18.09.09,0,0,0,0-.05,16.9,16.9,0,0,0-.95-4.11,17.39,17.39,0,0,0-2.9-5.11,17.62,17.62,0,0,0-24.48-2.79l-3-3.92A22.58,22.58,0,0,1,837.51,289.19Z"/><path class="cls-3" d="M837.79,301.91a17.18,17.18,0,0,1-.06,4.18l-17.4-2.22-3.61-4.65Z"/><path class="cls-9" d="M837.78,301.86a.09.09,0,0,1,0,.05l-21.07-2.69-3.48-4.48,23.59,3A18,18,0,0,1,837.78,301.86Z"/><path class="cls-9" d="M820.33,303.87l17.4,2.22c-.06.48-.14.94-.24,1.4l-.09.41-.15.57a17.14,17.14,0,0,1-.57,1.71c-.08.19-.16.39-.25.59s-.21.47-.32.71l-11-1.4Z"/><path class="cls-3" d="M836.83,297.75l-23.59-3-3.79-4.89a17.62,17.62,0,0,1,24.48,2.79A17.39,17.39,0,0,1,836.83,297.75Z"/><path class="cls-3" d="M825.15,310.08l11,1.4a17.38,17.38,0,0,1-4.72,6l-.33.26Z"/><path class="cls-5" d="M831.06,317.7l3,3.92a22.59,22.59,0,0,1-28.43-35.1l.74-.59,3,3.92a3.59,3.59,0,0,0-.33.25,17.56,17.56,0,0,0-3.39,3.68h0a16,16,0,0,0-1.17,2,8.43,8.43,0,0,0-.39.8c-.13.29-.26.58-.36.88a.54.54,0,0,0,0,.11,17.31,17.31,0,0,0-1,4.07.13.13,0,0,1,0,.06c0,.2,0,.39,0,.59a4.9,4.9,0,0,0,0,.54,13.63,13.63,0,0,0,0,1.69c0,.22,0,.43,0,.65v.12c0,.23.05.46.08.7s0,.33.07.5.08.51.14.77a17.63,17.63,0,0,0,28.09,10.45Z"/><path class="cls-3" d="M825.15,310.08l5.91,7.62A17.63,17.63,0,0,1,803,307.25Z"/><path class="cls-5" d="M808.9,392.21q10.82,14,21.65,27.92c-17.39,13.48-18.14,13.76-19,13.87s-1.69.07-3-1.82l-7.67-10.5c-1.45-1.88-1.36-5-.63-8.67Q804.59,402.6,808.9,392.21Z"/><path class="cls-9" d="M825.15,310.08,803,307.25c-.05-.26-.1-.51-.14-.77s-.05-.34-.07-.5-.06-.47-.08-.7v-.12c0-.22,0-.43,0-.65a13.63,13.63,0,0,1,0-1.69c0-.18,0-.36,0-.54s0-.39,0-.59a.13.13,0,0,0,0-.06l17.58,2.24Z"/><path class="cls-3" d="M820.33,303.87l-17.58-2.24a17.31,17.31,0,0,1,1-4.07h0l13,1.66Z"/><path class="cls-9" d="M813.24,294.74l3.48,4.48-13-1.66a.21.21,0,0,1,0-.11c.11-.3.23-.59.36-.88s.25-.54.39-.8a16,16,0,0,1,1.17-2h0Z"/><path class="cls-3" d="M809.45,289.85l3.79,4.89-7.51-1a17.56,17.56,0,0,1,3.39-3.68A3.59,3.59,0,0,1,809.45,289.85Z"/><path class="cls-6" d="M799.62,241c2.15.79,4.43,1.69,6.8,2.69a175.66,175.66,0,0,0-22.35,13.42l-2-2.52Z"/><path class="cls-5" d="M799.62,241l-17.5,13.59-13.07-16.84c7.15-4.36,9.82-3.35,13.37-2.25s8,2.29,13.38,4.14C797,240.09,798.3,240.54,799.62,241Z"/><path class="cls-8" d="M782.12,254.62l2,2.52a172.78,172.78,0,0,0-18.94,15.53c-.2-1.55-.37-3-.52-4.47Z"/><path class="cls-10" d="M782.12,254.62,764.61,268.2c-.15-1.4-.27-2.75-.37-4-.45-5.71-.5-10.29-.68-14s-.5-6.55,5.49-12.39Z"/><text class="cls-11" transform="translate(174.87 390.92)">This page is almost ready. Stay tuned for something <tspan x="0" y="21.6">amazing!!!</tspan></text><text class="cls-12" transform="translate(174.87 339.43)">COMING SOON</text></g></svg>