<svg id="Group_1250" data-name="Group 1250" xmlns="http://www.w3.org/2000/svg" width="151" height="151" viewBox="0 0 151 151">
  <path id="Path_1619" data-name="Path 1619" d="M151,30v91a29.988,29.988,0,0,1-30,30H30A30,30,0,0,1,0,121V30A30,30,0,0,1,30,0h91A30,30,0,0,1,151,30Z" fill="#fce8da"/>
  <g id="Group_1210" data-name="Group 1210">
    <g id="Group_1196" data-name="Group 1196">
      <g id="Group_1194" data-name="Group 1194">
        <path id="Path_1620" data-name="Path 1620" d="M94.53,151H68.38l-3.18-4L41.65,117.36l-2.83-3.55-.78-.99,1.49-1.18,8.19-6.5h.01v-.01l6.12,5.99L65.2,122.25Z" fill="#f77257"/>
      </g>
      <rect id="Rectangle_1811" data-name="Rectangle 1811" width="20.04" height="38.383" rx="4.55" transform="translate(19.5 77.531)" fill="#0f2e4a"/>
      <g id="Group_1195" data-name="Group 1195">
        <path id="Path_1599" data-name="Path 1599" d="M30.1,116.034h0a12.83,12.83,0,0,1,14.2-11.287l3.428.393-1.459,12.746Z" fill="#f77257"/>
      </g>
    </g>
    <g id="Group_1197" data-name="Group 1197">
      <ellipse id="Ellipse_364" data-name="Ellipse 364" cx="19.143" cy="18.674" rx="19.143" ry="18.674" transform="translate(71.906 15.117)" fill="#0f2e4a"/>
    </g>
    <g id="Group_1198" data-name="Group 1198">
      <path id="Path_1600" data-name="Path 1600" d="M79.39,59.7a5.155,5.155,0,0,1,5.156,5.156h0V59.7Z" fill="#f77257"/>
    </g>
    <g id="Group_1199" data-name="Group 1199">
      <path id="Path_1621" data-name="Path 1621" d="M119.74,81.65V151H65.2V97.38A29.217,29.217,0,0,1,94.43,68.14h11.8c.01,0,.01,0,.02.01h.17A13.5,13.5,0,0,1,119.74,81.65Z" fill="#fcbd6f"/>
    </g>
    <g id="Group_1200" data-name="Group 1200">
      <path id="Path_1602" data-name="Path 1602" d="M98.155,68.143l7.454,59.879H128.5v-44.5a15.373,15.373,0,0,0-15.372-15.374h0Z" fill="#fcbd6f"/>
    </g>
    <g id="Group_1201" data-name="Group 1201">
      <path id="Path_1622" data-name="Path 1622" d="M128.5,128.02v22.03a29.873,29.873,0,0,1-7.5.95H108.47l-2.86-22.98Z" fill="#f77257"/>
    </g>
    <g id="Group_1202" data-name="Group 1202">
      <path id="Path_1604" data-name="Path 1604" d="M77.847,59.873h5.285a23.308,23.308,0,0,0,23.315-23.3v-1.13A16.314,16.314,0,0,0,90.134,19.129H87.287A16.314,16.314,0,0,0,70.974,35.442V53A6.877,6.877,0,0,0,77.847,59.873Z" fill="#f77257"/>
    </g>
    <g id="Group_1203" data-name="Group 1203">
      <path id="Path_1605" data-name="Path 1605" d="M84.545,76.09l16.347-7.435V51.813H84.545Z" fill="#f77257"/>
    </g>
    <g id="Group_1204" data-name="Group 1204">
      <path id="Path_1606" data-name="Path 1606" d="M68.838,49.887h2.136V42.836l-3.165,5.226a1.2,1.2,0,0,0,1.029,1.825Z" fill="#f77257"/>
    </g>
    <g id="Group_1205" data-name="Group 1205">
      <path id="Path_1607" data-name="Path 1607" d="M100.892,57.186c9.968-14.35,9.256-22.148,9.256-22.148L99.466,27.012c-7.419,0-13.315,2.022-13.315,9.44l2.132.3C86.151,59.252,100.892,57.186,100.892,57.186Z" fill="#0f2e4a"/>
    </g>
    <g id="Group_1206" data-name="Group 1206">
      <path id="Path_1608" data-name="Path 1608" d="M88.337,50.062h3.991a3.991,3.991,0,0,0,3.991-3.991h0V42.949a3.99,3.99,0,0,0-3.99-3.99h0a3.99,3.99,0,0,0-3.991,3.989h0Z" fill="#f77257"/>
    </g>
    <g id="Group_1207" data-name="Group 1207">
      <rect id="Rectangle_1812" data-name="Rectangle 1812" width="3.551" height="17.587" transform="translate(84.84 34.528)" fill="#0f2e4a"/>
    </g>
    <g id="Group_1208" data-name="Group 1208">
      <path id="Path_1609" data-name="Path 1609" d="M70.63,49.881V60.215a3.178,3.178,0,0,0,3.177,3.178h5.108A9.48,9.48,0,0,0,88.4,53.914V49.881H84.84v1.813a1.812,1.812,0,0,1-1.81,1.811h-3.1a1.813,1.813,0,0,1-1.813-1.813h0a1.812,1.812,0,0,0-1.811-1.813h0Z" fill="#0f2e4a"/>
    </g>
    <g id="Group_1209" data-name="Group 1209">
      <path id="Path_1610" data-name="Path 1610" d="M74.727,25.034h3.89a6.294,6.294,0,0,1,6.277,6.309c0,.03,0,.061,0,.091l-.051,3.159,21.6,4.815-.7-16.716S86.518,10.244,74.727,25.034Z" fill="#0f2e4a"/>
    </g>
  </g>
</svg>
